<svg xmlns="http://www.w3.org/2000/svg" version="1.1" xmlns:xlink="http://www.w3.org/1999/xlink" xmlns:svgjs="http://svgjs.dev/svgjs" width="128" height="128" viewBox="0 0 128 128"><g transform="matrix(0.5309278350515464,0,0,0.5309278350515464,30.010624620982433,12.333870967741937)"><svg viewBox="0 0 102 155" data-background-color="#ffffff" preserveAspectRatio="xMidYMid meet" height="194" width="128" xmlns="http://www.w3.org/2000/svg" xmlns:xlink="http://www.w3.org/1999/xlink"><g id="tight-bounds" transform="matrix(1,0,0,1,0.014999999999986358,0.25)"><svg viewBox="0 0 101.97000000000001 154.5" height="154.5" width="101.97000000000001"><g><svg viewBox="0 0 101.97000000000001 154.5" height="154.5" width="101.97000000000001"><g><svg viewBox="0 0 101.97000000000001 154.5" height="154.5" width="101.97000000000001"><g id="textblocktransform"><svg viewBox="0 0 101.97000000000001 154.5" height="154.5" width="101.97000000000001" id="textblock"><g><svg viewBox="0 0 101.97000000000001 154.5" height="154.5" width="101.97000000000001"><g transform="matrix(1,0,0,1,0,0)"><svg width="101.97000000000001" viewBox="4.7 -35 23.1 35" height="154.5" data-palette-color="#883d1a"><path d="M5.2 0Q4.7 0 4.7-0.5L4.7-0.5 4.7-34.5Q4.7-35 5.2-35L5.2-35 17-35Q21.95-35 24.88-32.4 27.8-29.8 27.8-25.35L27.8-25.35 27.8-9.65Q27.8-5.2 24.88-2.6 21.95 0 17 0L17 0 5.2 0ZM8.25-3.3Q8.25-3.1 8.45-3.1L8.45-3.1 17.15-3.1Q20.4-3.1 22.33-5 24.25-6.9 24.25-10.1L24.25-10.1 24.25-24.85Q24.25-28.1 22.35-30 20.45-31.9 17.15-31.9L17.15-31.9 8.45-31.9Q8.25-31.9 8.25-31.7L8.25-31.7 8.25-3.3Z" opacity="1" transform="matrix(1,0,0,1,0,0)" fill="#883d1a" class="wordmark-text-0" data-fill-palette-color="primary" id="text-0"></path></svg></g></svg></g></svg></g></svg></g><g></g></svg></g><defs></defs></svg><rect width="101.97000000000001" height="154.5" fill="none" stroke="none" visibility="hidden"></rect></g></svg></g></svg>