<?xml version="1.0" standalone="no"?>
<!DOCTYPE svg PUBLIC "-//W3C//DTD SVG 20010904//EN"
 "http://www.w3.org/TR/2001/REC-SVG-20010904/DTD/svg10.dtd">
<svg version="1.0" xmlns="http://www.w3.org/2000/svg"
 width="700.000000pt" height="700.000000pt" viewBox="0 0 700.000000 700.000000"
 preserveAspectRatio="xMidYMid meet">
<metadata>
Created by potrace 1.14, written by Peter Selinger 2001-2017
</metadata>
<g transform="translate(0.000000,700.000000) scale(0.100000,-0.100000)"
fill="#000000" stroke="none">
<path d="M1682 6307 c-12 -6 -25 -22 -29 -36 -9 -36 -10 -5484 -1 -5520 5 -18
18 -33 35 -40 30 -12 2161 -10 2218 2 17 4 59 11 95 17 114 17 133 21 230 46
516 138 900 484 1044 941 31 99 64 263 71 353 6 76 6 2830 0 2875 -2 17 -7 55
-11 85 -4 30 -8 62 -9 70 -8 57 -51 209 -82 284 -160 401 -495 699 -942 838
-35 11 -71 21 -80 23 -9 2 -45 10 -81 19 -79 18 -117 24 -195 31 -33 4 -67 9
-75 12 -27 11 -2163 11 -2188 0z m2183 -501 c17 -4 63 -14 104 -22 303 -62
556 -254 691 -524 36 -72 75 -179 85 -231 3 -13 7 -35 10 -49 11 -49 13 -66
20 -140 9 -94 10 -2595 0 -2670 -6 -53 -11 -85 -21 -142 -9 -54 -57 -194 -86
-253 -95 -189 -246 -345 -428 -442 -105 -56 -223 -92 -400 -122 -30 -5 -405
-10 -832 -11 -736 -1 -777 0 -785 17 -11 23 -10 4574 1 4591 6 11 157 12 809
9 441 -2 816 -7 832 -11z"/>
</g>
</svg>
