<svg xmlns="http://www.w3.org/2000/svg" version="1.1" xmlns:xlink="http://www.w3.org/1999/xlink" xmlns:svgjs="http://svgjs.dev/svgjs" width="2000" height="772" viewBox="0 0 2000 772"><g transform="matrix(1,0,0,1,-1.2121212121213603,-1.0205067982637956)"><svg viewBox="0 0 396 153" data-background-color="#ffffff" preserveAspectRatio="xMidYMid meet" height="772" width="2000" xmlns="http://www.w3.org/2000/svg" xmlns:xlink="http://www.w3.org/1999/xlink"><g id="tight-bounds" transform="matrix(1,0,0,1,0.24000000000003752,0.20225069965590592)"><svg viewBox="0 0 395.5199999999999 152.5954986006882" height="152.5954986006882" width="395.5199999999999"><g><svg viewBox="0 0 397.4975999999999 153.35847609369162" height="152.5954986006882" width="395.5199999999999"><g><rect width="397.4975999999999" height="5.397434863992512" x="0" y="73.98052061484955" fill="#883d1a" opacity="1" stroke-width="0" stroke="transparent" fill-opacity="1" class="rect-yte-0" data-fill-palette-color="primary" rx="1%" id="yte-0" data-palette-color="#883d1a"></rect></g><g transform="matrix(1,0,0,1,0.9887999999999693,93.50736611756592)"><svg viewBox="0 0 395.52 59.851109976125706" height="59.851109976125706" width="395.52"><g id="textblocktransform"><svg viewBox="0 0 395.52 59.851109976125706" height="59.851109976125706" width="395.52" id="textblock"><g><svg viewBox="0 0 395.52 59.851109976125706" height="59.851109976125706" width="395.52"><g transform="matrix(1,0,0,1,0,0)"><svg width="395.52" viewBox="4.7 -35.5 300.65214285073 45.5" height="59.851109976125706" data-palette-color="#883d1a"><path d="M5.2 0Q4.7 0 4.7-0.5L4.7-0.5 4.7-34.5Q4.7-35 5.2-35L5.2-35 17-35Q21.95-35 24.88-32.4 27.8-29.8 27.8-25.35L27.8-25.35 27.8-9.65Q27.8-5.2 24.88-2.6 21.95 0 17 0L17 0 5.2 0ZM8.25-3.3Q8.25-3.1 8.45-3.1L8.45-3.1 17.15-3.1Q20.4-3.1 22.33-5 24.25-6.9 24.25-10.1L24.25-10.1 24.25-24.85Q24.25-28.1 22.35-30 20.45-31.9 17.15-31.9L17.15-31.9 8.45-31.9Q8.25-31.9 8.25-31.7L8.25-31.7 8.25-3.3ZM37.3-29.9Q36.1-29.9 35.3-30.7 34.5-31.5 34.5-32.7L34.5-32.7Q34.5-33.95 35.3-34.73 36.1-35.5 37.3-35.5L37.3-35.5Q38.5-35.5 39.3-34.73 40.1-33.95 40.1-32.7L40.1-32.7Q40.1-31.5 39.3-30.7 38.5-29.9 37.3-29.9L37.3-29.9ZM35.9-0.05Q35.4-0.05 35.4-0.55L35.4-0.55 35.4-24.85Q35.4-25.35 35.9-25.35L35.9-25.35 38.45-25.35Q38.95-25.35 38.95-24.85L38.95-24.85 38.95-0.55Q38.95-0.05 38.45-0.05L38.45-0.05 35.9-0.05ZM55.95 0.25Q53.15 0.25 50.97-0.65 48.8-1.55 47.62-3.05 46.45-4.55 46.45-6.4L46.45-6.4 46.45-7Q46.45-7.5 46.95-7.5L46.95-7.5 49.35-7.5Q49.85-7.5 49.85-7L49.85-7 49.85-6.6Q49.85-4.95 51.57-3.73 53.3-2.5 55.9-2.5L55.9-2.5Q58.5-2.5 60.09-3.68 61.7-4.85 61.7-6.65L61.7-6.65Q61.7-7.9 60.87-8.7 60.05-9.5 58.92-9.95 57.8-10.4 55.45-11.1L55.45-11.1Q52.65-11.9 50.85-12.7 49.05-13.5 47.82-14.93 46.6-16.35 46.6-18.55L46.6-18.55Q46.6-21.75 49.1-23.65 51.6-25.55 55.7-25.55L55.7-25.55Q58.45-25.55 60.57-24.65 62.7-23.75 63.85-22.18 65-20.6 65-18.65L65-18.65 65-18.5Q65-18 64.5-18L64.5-18 62.15-18Q61.65-18 61.65-18.5L61.65-18.5 61.65-18.65Q61.65-20.35 60.02-21.5 58.4-22.65 55.65-22.65L55.65-22.65Q53.1-22.65 51.55-21.63 50-20.6 50-18.8L50-18.8Q50-17.1 51.5-16.2 53-15.3 56.15-14.4L56.15-14.4Q59.05-13.55 60.84-12.8 62.65-12.05 63.95-10.63 65.25-9.2 65.25-6.9L65.25-6.9Q65.25-3.65 62.7-1.7 60.15 0.25 55.95 0.25L55.95 0.25ZM82.19-25.65Q86.19-25.65 88.57-23.3 90.94-20.95 90.94-17L90.94-17 90.94-0.5Q90.94 0 90.44 0L90.44 0 87.89 0Q87.39 0 87.39-0.5L87.39-0.5 87.39-16.3Q87.39-19.05 85.72-20.8 84.04-22.55 81.39-22.55L81.39-22.55Q78.64-22.55 76.94-20.85 75.24-19.15 75.24-16.4L75.24-16.4 75.24-0.5Q75.24 0 74.74 0L74.74 0 72.19 0Q71.69 0 71.69-0.5L71.69-0.5 71.69-34.5Q71.69-35 72.19-35L72.19-35 74.74-35Q75.24-35 75.24-34.5L75.24-34.5 75.24-22.65Q75.24-22.55 75.32-22.5 75.39-22.45 75.44-22.55L75.44-22.55Q77.64-25.65 82.19-25.65L82.19-25.65ZM99.84 0Q99.34 0 99.34-0.5L99.34-0.5 99.34-34.5Q99.34-35 99.84-35L99.84-35 111.64-35Q116.59-35 119.52-32.4 122.44-29.8 122.44-25.35L122.44-25.35 122.44-9.65Q122.44-5.2 119.52-2.6 116.59 0 111.64 0L111.64 0 99.84 0ZM102.89-3.3Q102.89-3.1 103.09-3.1L103.09-3.1 111.79-3.1Q115.04-3.1 116.97-5 118.89-6.9 118.89-10.1L118.89-10.1 118.89-24.85Q118.89-28.1 116.99-30 115.09-31.9 111.79-31.9L111.79-31.9 103.09-31.9Q102.89-31.9 102.89-31.7L102.89-31.7 102.89-3.3ZM131.94-29.9Q130.74-29.9 129.94-30.7 129.14-31.5 129.14-32.7L129.14-32.7Q129.14-33.95 129.94-34.73 130.74-35.5 131.94-35.5L131.94-35.5Q133.14-35.5 133.94-34.73 134.74-33.95 134.74-32.7L134.74-32.7Q134.74-31.5 133.94-30.7 133.14-29.9 131.94-29.9L131.94-29.9ZM130.54-0.05Q130.04-0.05 130.04-0.55L130.04-0.55 130.04-24.85Q130.04-25.35 130.54-25.35L130.54-25.35 133.09-25.35Q133.59-25.35 133.59-24.85L133.59-24.85 133.59-0.55Q133.59-0.05 133.09-0.05L133.09-0.05 130.54-0.05ZM150.59 0.25Q147.79 0.25 145.61-0.65 143.44-1.55 142.26-3.05 141.09-4.55 141.09-6.4L141.09-6.4 141.09-7Q141.09-7.5 141.59-7.5L141.59-7.5 143.99-7.5Q144.49-7.5 144.49-7L144.49-7 144.49-6.6Q144.49-4.95 146.21-3.73 147.94-2.5 150.54-2.5L150.54-2.5Q153.14-2.5 154.74-3.68 156.34-4.85 156.34-6.65L156.34-6.65Q156.34-7.9 155.51-8.7 154.69-9.5 153.56-9.95 152.44-10.4 150.09-11.1L150.09-11.1Q147.29-11.9 145.49-12.7 143.69-13.5 142.46-14.93 141.24-16.35 141.24-18.55L141.24-18.55Q141.24-21.75 143.74-23.65 146.24-25.55 150.34-25.55L150.34-25.55Q153.09-25.55 155.21-24.65 157.34-23.75 158.49-22.18 159.64-20.6 159.64-18.65L159.64-18.65 159.64-18.5Q159.64-18 159.14-18L159.14-18 156.79-18Q156.29-18 156.29-18.5L156.29-18.5 156.29-18.65Q156.29-20.35 154.66-21.5 153.04-22.65 150.29-22.65L150.29-22.65Q147.74-22.65 146.19-21.63 144.64-20.6 144.64-18.8L144.64-18.8Q144.64-17.1 146.14-16.2 147.64-15.3 150.79-14.4L150.79-14.4Q153.69-13.55 155.49-12.8 157.29-12.05 158.59-10.63 159.89-9.2 159.89-6.9L159.89-6.9Q159.89-3.65 157.34-1.7 154.79 0.25 150.59 0.25L150.59 0.25ZM175.88 0.4Q172.28 0.4 169.71-1.48 167.13-3.35 166.18-6.55L166.18-6.55Q165.53-8.75 165.53-12.75L165.53-12.75Q165.53-16.35 166.18-18.85L166.18-18.85Q167.08-21.95 169.68-23.83 172.28-25.7 175.88-25.7L175.88-25.7Q179.53-25.7 182.21-23.85 184.88-22 185.68-19.25L185.68-19.25Q185.93-18.35 185.98-17.75L185.98-17.75 185.98-17.65Q185.98-17.3 185.53-17.2L185.53-17.2 183.03-16.85 182.93-16.85Q182.58-16.85 182.48-17.3L182.48-17.3 182.33-18.05Q181.88-19.95 180.13-21.28 178.38-22.6 175.88-22.6L175.88-22.6Q173.38-22.6 171.71-21.28 170.03-19.95 169.53-17.75L169.53-17.75Q169.08-15.85 169.08-12.7L169.08-12.7Q169.08-9.4 169.53-7.6L169.53-7.6Q170.03-5.35 171.71-4.03 173.38-2.7 175.88-2.7L175.88-2.7Q178.33-2.7 180.11-3.98 181.88-5.25 182.33-7.25L182.33-7.25 182.33-7.45 182.38-7.65Q182.43-8.15 182.98-8.05L182.98-8.05 185.43-7.65Q185.93-7.55 185.88-7.1L185.88-7.1 185.68-6.1Q184.93-3.2 182.23-1.4 179.53 0.4 175.88 0.4L175.88 0.4ZM201.83 0.4Q198.23 0.4 195.63-1.45 193.03-3.3 192.03-6.55L192.03-6.55Q191.33-8.85 191.33-12.7L191.33-12.7Q191.33-16.55 192.03-18.8L192.03-18.8Q192.98-22 195.58-23.85 198.18-25.7 201.88-25.7L201.88-25.7Q205.43-25.7 208.01-23.85 210.58-22 211.53-18.85L211.53-18.85Q212.23-16.7 212.23-12.7L212.23-12.7Q212.23-8.65 211.53-6.55L211.53-6.55Q210.58-3.3 208.01-1.45 205.43 0.4 201.83 0.4L201.83 0.4ZM201.83-2.7Q204.23-2.7 205.93-4.03 207.63-5.35 208.23-7.6L208.23-7.6Q208.68-9.4 208.68-12.65L208.68-12.65Q208.68-15.95 208.28-17.7L208.28-17.7Q207.68-19.95 205.96-21.28 204.23-22.6 201.78-22.6L201.78-22.6Q199.33-22.6 197.63-21.28 195.93-19.95 195.33-17.7L195.33-17.7Q194.93-15.95 194.93-12.65L194.93-12.65Q194.93-9.35 195.33-7.6L195.33-7.6Q195.88-5.35 197.61-4.03 199.33-2.7 201.83-2.7L201.83-2.7ZM224.88 0Q224.43 0 224.28-0.4L224.28-0.4 216.08-24.75 216.03-24.95Q216.03-25.3 216.48-25.3L216.48-25.3 219.33-25.3Q219.78-25.3 219.93-24.9L219.93-24.9 226.18-5.3Q226.23-5.2 226.33-5.2 226.43-5.2 226.48-5.3L226.48-5.3 232.73-24.9Q232.88-25.3 233.33-25.3L233.33-25.3 236.18-25.25Q236.73-25.25 236.58-24.7L236.58-24.7 228.38-0.4Q228.23 0 227.78 0L227.78 0 224.88 0ZM260.73-16.9Q260.93-15.5 260.93-13.4L260.93-13.4 260.93-11.8Q260.93-11.3 260.43-11.3L260.43-11.3 244.28-11.3Q244.08-11.3 244.08-11.1L244.08-11.1Q244.18-8.35 244.38-7.55L244.38-7.55Q244.93-5.3 246.73-4 248.53-2.7 251.33-2.7L251.33-2.7Q253.43-2.7 255.03-3.65 256.63-4.6 257.53-6.35L257.53-6.35Q257.83-6.8 258.23-6.55L258.23-6.55 260.18-5.4Q260.58-5.15 260.38-4.7L260.38-4.7Q259.13-2.3 256.63-0.93 254.13 0.45 250.88 0.45L250.88 0.45Q247.33 0.4 244.93-1.25 242.53-2.9 241.48-5.85L241.48-5.85Q240.58-8.25 240.58-12.75L240.58-12.75Q240.58-14.85 240.65-16.18 240.73-17.5 241.03-18.55L241.03-18.55Q241.88-21.8 244.45-23.75 247.03-25.7 250.68-25.7L250.68-25.7Q255.23-25.7 257.68-23.4 260.13-21.1 260.73-16.9L260.73-16.9ZM250.68-22.6Q248.23-22.6 246.6-21.33 244.98-20.05 244.48-17.9L244.48-17.9Q244.18-16.85 244.08-14.5L244.08-14.5Q244.08-14.3 244.28-14.3L244.28-14.3 257.23-14.3Q257.43-14.3 257.43-14.5L257.43-14.5Q257.33-16.75 257.13-17.7L257.13-17.7Q256.58-19.95 254.9-21.28 253.23-22.6 250.68-22.6L250.68-22.6ZM278.17-25.55Q279.82-25.55 281.02-24.9L281.02-24.9Q281.42-24.7 281.32-24.25L281.32-24.25 280.77-21.8Q280.62-21.3 280.12-21.5L280.12-21.5Q279.27-21.85 278.17-21.85L278.17-21.85 277.52-21.8Q274.92-21.7 273.22-19.88 271.52-18.05 271.52-15.25L271.52-15.25 271.52-0.5Q271.52 0 271.02 0L271.02 0 268.47 0Q267.97 0 267.97-0.5L267.97-0.5 267.97-24.8Q267.97-25.3 268.47-25.3L268.47-25.3 271.02-25.3Q271.52-25.3 271.52-24.8L271.52-24.8 271.52-21.75Q271.52-21.6 271.6-21.58 271.67-21.55 271.72-21.65L271.72-21.65Q272.77-23.5 274.4-24.53 276.02-25.55 278.17-25.55L278.17-25.55ZM286.42 10Q286.07 10 286.07 9.5L286.07 9.5 286.07 7.5Q286.07 7 286.57 7L286.57 7 286.77 7Q288.72 6.95 289.8 6.43 290.87 5.9 291.64 4.48 292.42 3.05 293.32 0.15L293.32 0.15Q293.42-0.05 293.32-0.15L293.32-0.15 284.87-24.75 284.82-24.95Q284.82-25.3 285.27-25.3L285.27-25.3 287.92-25.3Q288.37-25.3 288.52-24.9L288.52-24.9 295.02-4.7Q295.07-4.6 295.17-4.6 295.27-4.6 295.32-4.7L295.32-4.7 301.72-24.9Q301.87-25.3 302.32-25.3L302.32-25.3 304.92-25.3Q305.47-25.3 305.32-24.75L305.32-24.75 296.07 2.2Q294.87 5.55 293.82 7.15 292.77 8.75 291.19 9.38 289.62 10 286.77 10L286.77 10 286.42 10Z" opacity="1" transform="matrix(1,0,0,1,0,0)" fill="#883d1a" class="wordmark-text-0" data-fill-palette-color="primary" id="text-0"></path></svg></g></svg></g></svg></g></svg></g><g transform="matrix(1,0,0,1,172.8113649105736,0)"><svg viewBox="0 0 51.87487017885273 59.851109976125706" height="59.851109976125706" width="51.87487017885273"><g><svg xmlns="http://www.w3.org/2000/svg" viewBox="5.999999093015506 2 52.00188122007151 59.9976501365147" x="0" y="0" height="59.851109976125706" width="51.87487017885273" class="icon-icon-0" data-fill-palette-color="accent" id="icon-0"><g fill="#4d331f" data-fill-palette-color="accent"><path d="M16 46A16 16 0 1 0 36 30.505V26H37A1 1 0 0 0 38 25V21A1 1 0 0 0 37 20H33V18H35.5A7.51 7.51 0 0 0 43 10.5V9A1 1 0 0 0 42 8H38.5A7.47 7.47 0 0 0 33 10.418V6H31V8.418A7.47 7.47 0 0 0 25.5 6H22A1 1 0 0 0 21 7V8.5A7.51 7.51 0 0 0 28.5 16H31V20H27A1 1 0 0 0 26 21V25A1 1 0 0 0 27 26H28V30.5A16.05 16.05 0 0 0 16 46M38.5 10H41V10.5A5.506 5.506 0 0 1 35.5 16H33V15.5A5.506 5.506 0 0 1 38.5 10M23 8.5V8H25.5A5.506 5.506 0 0 1 31 13.5V14H28.5A5.506 5.506 0 0 1 23 8.5M28 22H36V24H28ZM34 26V31.3A1 1 0 0 0 34.8 32.28 14 14 0 1 1 29.2 32.28 1 1 0 0 0 30 31.3V26Z" fill="#4d331f" data-fill-palette-color="accent"></path><path d="M20.794 47.156L20.507 47.443A1 1 0 0 0 20.232 48.343 12 12 0 0 0 44 46.094 1 1 0 0 0 42.843 45.094 7.3 7.3 0 0 0 38.797 47.153 5.37 5.37 0 0 1 31.211 47.153 7.37 7.37 0 0 0 20.794 47.156M29.794 48.571A7.37 7.37 0 0 0 40.208 48.571 5.3 5.3 0 0 1 41.895 47.433 10 10 0 0 1 22.312 48.471 5.37 5.37 0 0 1 29.793 48.571Z" fill="#4d331f" data-fill-palette-color="accent"></path><rect x="25" y="49" width="2" height="2" fill="#4d331f" data-fill-palette-color="accent"></rect><rect x="31" y="52" width="2" height="2" fill="#4d331f" data-fill-palette-color="accent"></rect><path d="M28.363 36.682L27.637 34.818A12.06 12.06 0 0 0 20.452 42.728L22.376 43.272A10.05 10.05 0 0 1 28.363 36.682" fill="#4d331f" data-fill-palette-color="accent"></path><rect x="31" y="2" width="2" height="2" fill="#4d331f" data-fill-palette-color="accent"></rect><path d="M46.561 10.457L45.439 12.113A24 24 0 0 1 50.24 47.6L51.76 48.9A26 26 0 0 0 46.56 10.458Z" fill="#4d331f" data-fill-palette-color="accent"></path><path d="M6 32A26 26 0 0 0 12.24 48.9L13.76 47.6A24 24 0 0 1 18.56 12.115L17.438 10.459A25.99 25.99 0 0 0 6 32" fill="#4d331f" data-fill-palette-color="accent"></path></g></svg></g></svg></g><g></g></svg></g><defs></defs></svg><rect width="395.5199999999999" height="152.5954986006882" fill="none" stroke="none" visibility="hidden"></rect></g></svg></g></svg>